<svg width="108" height="108" viewBox="0 0 108 108" fill="none" xmlns="http://www.w3.org/2000/svg">
<path fill-rule="evenodd" clip-rule="evenodd" d="M49.561 45.6867C49.6028 46.1498 49.6564 46.609 49.7218 47.0641C48.1878 45.9137 42.893 45.0656 36.597 45.0656C29.2201 45.0656 23.2177 46.23 23.0286 47.6805L23 47.6876C23.0085 47.7217 23.0169 47.7557 23.0254 47.7898C23.0301 47.8547 23.0464 47.9191 23.0739 47.9829C23.8724 51.1468 24.8507 54.216 26.0088 57.1906L26.0133 57.2023L26.0194 57.2133C27.5585 60.037 29.25 62.7217 31.0938 65.2674L31.1011 65.2776L31.1097 65.2867C33.2136 67.5244 35.4245 69.5971 37.7426 71.5045L37.7523 71.5125L37.7629 71.5192C40.2469 73.0795 42.79 74.4615 45.3921 75.6651L45.4035 75.6704L45.4155 75.6742C48.0871 76.5171 50.7702 77.181 53.4649 77.6659L53.4773 77.6681L53.4898 77.6688C56.1615 77.8037 58.8006 77.7705 61.4072 77.5691L61.4197 77.5682L61.432 77.5656C63.9328 77.0465 66.363 76.3799 68.7225 75.5657L68.7344 75.5616L68.7456 75.556C70.9306 74.4738 73.0148 73.2723 74.998 71.9515L75.0085 71.9445L75.018 71.9363C76.7753 70.4099 78.4106 68.7977 79.9239 67.0995L79.9322 67.0901L79.9393 67.0798C81.1942 65.2461 82.3157 63.3625 83.3037 61.429L83.3094 61.4178L83.3136 61.406C84.0302 59.4095 84.6114 57.399 85.0573 55.3745L85.06 55.3623L85.0611 55.3497C85.2409 53.3326 85.2924 51.335 85.2154 49.3572L85.2149 49.3446L85.2128 49.3322C84.8918 47.4252 84.4569 45.5673 83.9081 43.7585L83.9045 43.7465L83.8993 43.735C83.1422 42.0505 82.2917 40.4388 81.3478 38.8999L81.3413 38.8891L81.3334 38.8794C80.2271 37.5055 79.052 36.2213 77.8083 35.0269L77.7992 35.0182L77.7891 35.0108C76.4352 34.008 75.0394 33.1047 73.6018 32.3009L73.5908 32.2948L73.5792 32.2901C72.086 31.6899 70.5782 31.1917 69.0559 30.7956L69.0437 30.7924L69.0312 30.7908C67.5067 30.5961 65.9933 30.4992 64.491 30.5L64.4784 30.5L64.4659 30.5016C63.0103 30.6892 61.5886 30.9643 60.2007 31.3272L60.1886 31.3303L60.1769 31.335C58.8773 31.8591 57.6301 32.456 56.4354 33.1258L56.4244 33.1319L56.4143 33.1394C55.3401 33.9369 54.3318 34.789 53.3897 35.6957L53.3806 35.7044L53.3728 35.7142C52.5728 36.71 51.847 37.7403 51.1955 38.8052L51.1889 38.816L51.1838 38.8274C50.6851 39.9403 50.2633 41.0672 49.9185 42.2083L49.9149 42.2203L49.9128 42.2327C49.7209 43.3812 49.6033 44.5242 49.5603 45.6616L49.5598 45.6742L49.561 45.6867ZM63.1884 76.7699C65.0261 76.3284 66.824 75.8046 68.5821 75.1983C70.7445 74.1267 72.8069 72.9377 74.7693 71.6315C75.7161 70.8087 76.6271 69.9609 77.5024 69.0881C80.7315 64.8015 80.9323 60.2787 79.3533 56.7259C77.6866 52.9759 74.0351 50.2991 69.8373 50.1076C69.7709 50.5066 69.6885 50.9055 69.5899 51.3043L69.5869 51.3165L69.5823 51.3282C69.3338 51.9687 69.0417 52.5975 68.7062 53.2148L68.7002 53.2258L68.6928 53.236C68.3139 53.7604 67.9017 54.2661 67.4564 54.7529C67.4517 54.76 67.447 54.7671 67.4422 54.7742L67.4389 54.772C67.4208 54.7917 67.4026 54.8115 67.3844 54.8312C71.2326 57.6431 72.3234 62.3717 71.2045 66.8428C70.1976 70.8661 67.3993 74.6971 63.1884 76.7699ZM67.489 54.1244C67.3393 54.2978 67.1854 54.4688 67.0273 54.6376C66.4654 55.1004 65.8692 55.5306 65.2386 55.9283C64.5458 56.2491 63.8269 56.5278 63.0817 56.7644C62.3406 56.8981 61.5859 56.9879 60.8176 57.0337C62.0471 56.5639 62.9201 55.4982 63.3592 54.3577C63.632 53.6492 63.7412 52.9035 63.6622 52.2402C63.592 51.6513 63.372 51.1197 62.9781 50.7433C63.0095 50.7348 63.0408 50.726 63.072 50.717L63.0841 50.7135L63.0956 50.7085C63.333 50.6057 63.5606 50.4895 63.7783 50.3601L63.7891 50.3536L63.799 50.3459C63.9938 50.1935 64.1762 50.0311 64.3464 49.8588L64.3552 49.8498L64.3628 49.8398C64.4273 49.7552 64.4891 49.6692 64.548 49.582C65.5891 49.4915 66.5878 50.2102 67.1723 51.2378C67.6757 52.1228 67.8511 53.2026 67.489 54.1244ZM67.8967 53.6337C68.0443 52.7764 67.831 51.8655 67.4004 51.1084C66.8209 50.0896 65.8229 49.308 64.7192 49.3122C64.73 49.2938 64.7408 49.2755 64.7514 49.2571L64.7577 49.2462L64.7625 49.2346C64.8496 49.0261 64.9225 48.815 64.9811 48.6016L64.9845 48.5894L64.9862 48.577C65.0164 48.363 65.0328 48.1502 65.0354 47.9385L65.0355 47.9259L65.0341 47.9134C65.0102 47.7081 64.9739 47.5072 64.9251 47.3106L64.9221 47.2984L64.9175 47.2867C64.9099 47.2671 64.9021 47.2475 64.8942 47.228C65.6591 46.6861 66.8417 46.6199 67.8476 46.9513C68.607 47.2015 69.2321 47.6653 69.501 48.2866C69.5298 48.6269 69.5467 48.9704 69.5516 49.3171C69.479 49.9437 69.3655 50.5706 69.2109 51.1979C68.9711 51.8145 68.6896 52.4206 68.3664 53.0162C68.2153 53.225 68.0587 53.4309 67.8967 53.6337ZM64.6709 46.7552C64.7116 46.8299 64.7503 46.906 64.787 46.9835C65.6393 46.4082 66.8899 46.3599 67.9297 46.7025C68.5255 46.8987 69.0708 47.2306 69.4368 47.6818C69.429 47.6211 69.4208 47.5604 69.4123 47.4999C69.4 47.4554 69.3875 47.4109 69.3747 47.3666L69.335 47.2939L69.3511 47.2852C69.2072 46.7951 69.0387 46.3191 68.8456 45.8571C68.5646 45.3726 68.2583 44.9129 67.9267 44.478C67.5507 44.0987 67.1574 43.7484 66.7467 43.427C66.7091 43.4048 66.6714 43.3828 66.6337 43.361C65.083 43.3888 63.936 44.6585 64.1906 46.211C64.2214 46.235 64.2519 46.2594 64.2822 46.2843L64.2919 46.2923L64.3005 46.3015C64.4276 46.4366 64.5465 46.5808 64.6575 46.7339L64.6649 46.7441L64.6709 46.7552ZM63.9016 46.0049C63.8943 46.0002 63.8871 45.9956 63.8798 45.9909C63.869 45.9839 63.8581 45.977 63.8472 45.9702L63.8365 45.9635L63.8251 45.9582C63.6679 45.8855 63.5083 45.8235 63.3463 45.7724L63.3343 45.7687L63.322 45.7664C63.1588 45.7371 62.9961 45.7183 62.8337 45.7101L62.8212 45.7094L62.8086 45.7104C62.7402 45.7157 62.6722 45.7228 62.6049 45.7317C61.9786 45.3727 61.8437 44.6736 62.0266 43.9655C62.1905 43.3312 62.6003 42.7374 63.0772 42.4485C63.3825 42.4302 63.6909 42.4248 64.0022 42.4322C64.4706 42.5047 64.9382 42.6078 65.4049 42.7416C65.6804 42.8609 65.9527 42.9915 66.2217 43.1334C64.8102 43.3488 63.7856 44.5366 63.9016 46.0049ZM61.7727 43.9001C61.5949 44.5883 61.6816 45.341 62.2517 45.8066C62.132 45.8506 62.0158 45.9004 61.9033 45.9561L61.892 45.9617L61.8816 45.9687C61.7607 46.0492 61.6464 46.1362 61.5388 46.2296L61.5293 46.2378L61.521 46.2472C61.4285 46.351 61.3437 46.4592 61.2667 46.5717L61.2596 46.5821L61.2539 46.5933C61.2232 46.6532 61.1947 46.7138 61.1682 46.7749C60.6421 46.9716 60.0736 46.6886 59.7174 46.1308C59.415 45.6571 59.2869 45.009 59.4982 44.3688L59.5025 44.3621C59.7553 44.0642 60.0292 43.78 60.3243 43.5095C60.66 43.2739 61.0136 43.0579 61.385 42.8614C61.7742 42.7165 62.1753 42.5943 62.5885 42.4951C62.2052 42.8562 61.9088 43.3733 61.7727 43.9001ZM59.4786 43.7964C59.6653 43.5947 59.8618 43.3996 60.0679 43.2111L60.0772 43.2026L60.0875 43.1954C60.1217 43.1713 60.1562 43.1474 60.1908 43.1237C59.5019 42.5157 59.136 41.4979 59.0106 40.3263C58.8765 39.0722 59.0146 37.6147 59.3523 36.2225C59.6898 34.8304 60.229 33.4945 60.9036 32.4853C61.2093 32.0281 61.5468 31.6322 61.9102 31.3295C61.3726 31.4416 60.84 31.5665 60.3125 31.7042C59.0362 32.2194 57.8117 32.8055 56.6389 33.4623C55.8565 34.0436 55.1098 34.6541 54.3989 35.2937C53.2091 37.4043 53.326 39.9243 54.2301 41.8694C55.1346 43.8156 56.8048 45.1486 58.7026 44.9606C58.8462 44.681 59.005 44.4068 59.179 44.1381L59.1858 44.1275L59.194 44.1179C59.2825 44.0133 59.3736 43.9103 59.4671 43.8089L59.4706 43.8029L59.4756 43.7946L59.4786 43.7964ZM61.0703 47.0758C60.4538 47.2033 59.8542 46.8322 59.4963 46.2717C59.2668 45.9123 59.1265 45.4639 59.1317 44.9896C59.0684 45.1073 59.008 45.226 58.9504 45.3456C58.837 45.6906 58.7464 46.0371 58.6785 46.385C58.6571 46.7302 58.6571 47.0713 58.6783 47.4083C58.7418 47.7316 58.8239 48.0459 58.9246 48.3514C58.9532 48.4107 58.9825 48.4694 59.0124 48.5276C59.4628 48.8279 59.9389 48.93 60.3351 48.8664C60.7517 48.7995 61.0829 48.5506 61.2243 48.1429L61.2295 48.1447C61.222 48.1329 61.2146 48.121 61.2072 48.109L61.2007 48.0983L61.1955 48.0869C61.1485 47.9822 61.108 47.874 61.0741 47.7622L61.0705 47.7502L61.0684 47.7378C61.0485 47.6197 61.0362 47.4997 61.0315 47.3778L61.031 47.3653L61.0321 47.3528C61.0404 47.2604 61.0531 47.1681 61.0703 47.0758ZM59.3787 49.1612C59.3354 49.0943 59.2932 49.0264 59.2519 48.9578C59.6344 49.127 60.0253 49.1815 60.3767 49.1251C60.823 49.0534 61.2029 48.8021 61.4054 48.3892L61.4063 48.3904L61.4154 48.3991C61.4927 48.4734 61.5737 48.5419 61.6584 48.6046L61.6685 48.6121L61.6795 48.6183C61.7692 48.6684 61.8609 48.7124 61.9546 48.75L61.9663 48.7547L61.9785 48.7579C62.0738 48.7827 62.1695 48.8013 62.2656 48.8136L62.278 48.8151L62.2906 48.8151C62.3061 48.8151 62.3215 48.815 62.3369 48.8146C62.4737 48.9052 62.5531 49.0416 62.5824 49.2036C62.6161 49.3904 62.5821 49.6107 62.485 49.8189C62.3299 50.1512 62.0278 50.4285 61.6324 50.4832C61.5811 50.4794 61.5298 50.4749 61.4783 50.4697C61.2208 50.4091 60.9649 50.3318 60.7107 50.2376C60.465 50.1078 60.2255 49.9613 59.9921 49.7982C59.777 49.6011 59.5725 49.3888 59.3787 49.1612ZM62.267 50.495C62.5006 50.4573 62.7284 50.4066 62.9506 50.3429C63.1649 50.2496 63.3701 50.1448 63.5663 50.0288C63.741 49.8914 63.9047 49.7457 64.0574 49.5917C64.1039 49.5304 64.1489 49.4684 64.1922 49.4057C64.4839 48.9612 64.3868 48.5551 64.1671 48.3065C63.9498 48.0607 63.6373 47.9812 63.4076 48.1102L63.4054 48.1176L63.4002 48.129C63.3681 48.2007 63.3312 48.2705 63.2896 48.3386L63.2831 48.3493L63.2752 48.3591C63.2239 48.4229 63.1683 48.4836 63.1084 48.5413L63.0993 48.55L63.0892 48.5575C63.0207 48.6084 62.9485 48.655 62.8729 48.6974L62.8619 48.7036L62.8502 48.7083C62.792 48.7318 62.7325 48.7526 62.6717 48.7709C62.7599 48.8834 62.8151 49.0161 62.8405 49.157C62.8856 49.4065 62.8383 49.6818 62.7227 49.9295C62.6227 50.144 62.4674 50.345 62.267 50.495ZM64.5984 48.5097C64.5958 48.5192 64.5931 48.5286 64.5904 48.538C64.5441 48.3851 64.4649 48.2476 64.3637 48.1331C64.1388 47.8787 63.7867 47.7279 63.4646 47.8066C63.4651 47.7511 63.4628 47.696 63.4579 47.6413L63.4567 47.6288L63.454 47.6165C63.4388 47.5477 63.4194 47.4806 63.3959 47.4153L63.3917 47.4035L63.3859 47.3923C63.3551 47.3321 63.3208 47.2745 63.2831 47.2195L63.276 47.2092L63.2676 47.1998C63.2388 47.1675 63.2088 47.1366 63.1777 47.1072C63.1906 47.0571 63.2324 47.0029 63.3188 46.9491C63.4431 46.8716 63.6294 46.8189 63.8258 46.8138C64.0024 46.8091 64.173 46.8432 64.3047 46.9181C64.3137 46.93 64.3225 46.942 64.3313 46.9541C64.4115 47.1023 64.4832 47.2567 64.5463 47.4175C64.5885 47.5896 64.6204 47.7658 64.6418 47.9462C64.639 48.1326 64.6246 48.3204 64.5984 48.5097ZM63.9957 46.5581C63.8833 46.4678 63.7675 46.385 63.6484 46.3096C63.5137 46.2478 63.3775 46.195 63.2398 46.151C63.1012 46.1266 62.9634 46.1106 62.8264 46.1032C62.7879 46.1063 62.7497 46.1101 62.7116 46.1145C62.4751 46.1901 62.3036 46.3828 62.1982 46.6047C62.1235 46.762 62.0881 46.9237 62.0881 47.0482C62.0881 47.0771 62.0901 47.1026 62.0933 47.1246C62.1238 47.0933 62.1561 47.0636 62.1902 47.0355L62.1999 47.0275L62.2105 47.0208C62.255 46.9928 62.3014 46.9676 62.3497 46.9452L62.3611 46.9399L62.3731 46.9361C62.4252 46.9196 62.4786 46.9064 62.5331 46.8965L62.5454 46.8943L62.558 46.8937C62.6148 46.8907 62.672 46.8915 62.7294 46.8959L62.7419 46.8968L62.7543 46.8993C62.8122 46.9113 62.8695 46.9271 62.9262 46.9466L62.9381 46.9507L62.9494 46.9562L62.9545 46.9588C63.0034 46.8628 63.0875 46.7844 63.1799 46.7268C63.3518 46.6196 63.5861 46.5579 63.819 46.5518C63.8772 46.5503 63.9365 46.5523 63.9957 46.5581ZM61.9318 47.4401C61.9348 47.4277 61.9381 47.4153 61.9417 47.403C61.9077 47.3689 61.8832 47.3277 61.8663 47.286C61.8375 47.2149 61.8259 47.1323 61.8258 47.0484C61.8258 46.8799 61.8722 46.6799 61.9613 46.4923C61.9878 46.4365 62.0187 46.3809 62.0538 46.3269C61.9671 46.3869 61.8847 46.4506 61.8065 46.5179C61.731 46.6034 61.6617 46.6918 61.5986 46.7831C61.5498 46.8796 61.5075 46.9772 61.4715 47.0761C61.4499 47.1762 61.4345 47.2759 61.4251 47.3751C61.4282 47.4441 61.434 47.5121 61.4426 47.5792C61.4887 47.6925 61.5956 47.7947 61.722 47.8526C61.7961 47.8866 61.8657 47.8997 61.9189 47.8954C61.9564 47.8923 61.9818 47.8814 61.9994 47.8656C61.9839 47.8369 61.9698 47.8074 61.9571 47.7771L61.9522 47.7655L61.9489 47.7533C61.9373 47.7115 61.9285 47.6688 61.9223 47.6254L61.9205 47.6129L61.9204 47.6003C61.9198 47.5553 61.9221 47.5101 61.9273 47.4648L61.9288 47.4523L61.9318 47.4401ZM62.1782 48.0575C62.1926 48.0671 62.2071 48.0764 62.222 48.0852L62.2328 48.0916L62.2443 48.0966C62.2791 48.1116 62.3145 48.1243 62.3506 48.1347L62.3627 48.1382L62.3752 48.1401C62.4113 48.1456 62.4475 48.1489 62.4837 48.1498L62.4963 48.1501L62.5088 48.1488C62.5438 48.1452 62.5784 48.1395 62.6125 48.1315L62.6248 48.1286L62.6365 48.1242C62.6684 48.1123 62.6993 48.0985 62.7292 48.0827L62.7403 48.0768L62.7506 48.0696C62.7774 48.0507 62.803 48.0303 62.8271 48.0082L62.8363 47.9997L62.8445 47.9902C62.8649 47.966 62.8838 47.9406 62.9009 47.9141L62.9078 47.9036L62.9132 47.8923C62.9264 47.8646 62.9379 47.8363 62.9474 47.8074L62.9514 47.7954L62.9538 47.7831C62.9594 47.754 62.9632 47.7248 62.9651 47.6953L62.9659 47.6828L62.965 47.6702C62.9632 47.6417 62.9596 47.6133 62.9541 47.5853L62.9517 47.573L62.9478 47.561C62.939 47.5348 62.9287 47.5091 62.9167 47.4842L62.9113 47.4728L62.9045 47.4623C62.8899 47.4398 62.8739 47.4183 62.8566 47.3978L62.8484 47.3883L62.8391 47.3798C62.8199 47.3623 62.7997 47.346 62.7784 47.3311L62.7682 47.3239L62.757 47.318C62.7347 47.3063 62.7118 47.296 62.6882 47.2872L62.6878 47.287C62.7206 47.2943 62.7534 47.3033 62.7863 47.3142C62.8186 47.3306 62.8504 47.349 62.8818 47.3693C62.9108 47.395 62.9387 47.4226 62.9656 47.4521C62.9887 47.4865 63.0101 47.5225 63.0299 47.5602C63.0445 47.6019 63.0569 47.6448 63.0671 47.6891C63.0709 47.736 63.0721 47.7835 63.0707 47.8319C63.062 47.8812 63.0504 47.9305 63.036 47.9799C63.0138 48.0283 62.9886 48.0759 62.9604 48.1229C62.9247 48.1666 62.886 48.2089 62.8444 48.2495C62.7959 48.2849 62.7449 48.3179 62.6913 48.3485C62.632 48.3719 62.5708 48.3921 62.5076 48.4091C62.4406 48.4172 62.3724 48.4216 62.303 48.4221C62.2321 48.4126 62.1611 48.3988 62.0898 48.3807C62.0198 48.352 61.9507 48.319 61.8826 48.2814C61.8186 48.2334 61.7568 48.1811 61.6971 48.1245C61.6969 48.1242 61.6967 48.124 61.6965 48.1238C61.7764 48.15 61.8599 48.1631 61.9402 48.1565C62.0258 48.1495 62.1111 48.1195 62.1782 48.0575ZM79.6216 66.8476C79.2764 67.2349 78.9247 67.6176 78.5666 67.9959C81.0203 64.016 81.0584 59.9169 79.593 56.6196C77.8925 52.7936 74.1696 50.0545 69.8783 49.8473C69.9029 49.6813 69.9248 49.5154 69.9439 49.3494L69.9453 49.337L69.9452 49.3244C69.9366 48.6835 69.8883 48.0528 69.8 47.4322L69.7983 47.4198L69.7949 47.4077L69.7872 47.3795L69.7802 47.3547C72.8999 45.752 76.1537 45.5068 78.8656 46.5981C81.6003 47.6986 83.8039 50.1662 84.7671 54.0193C84.7407 54.446 84.7084 54.8737 84.6703 55.3024C84.2294 57.302 83.6552 59.2883 82.9476 61.2615C81.9706 63.1722 80.862 65.0343 79.6216 66.8476ZM84.8108 53.1967C84.8676 51.9178 84.8715 50.6473 84.8227 49.385C84.5054 47.5027 84.0762 45.6692 83.5353 43.8845C83.4346 43.6606 83.3322 43.438 83.2282 43.2168C80.6543 40.1232 77.6735 38.9761 74.8971 39.1953C72.0463 39.4203 69.3886 41.0877 67.5876 43.6162C67.8019 43.8062 68.0112 44.0043 68.2154 44.2106L68.2242 44.2196L68.2318 44.2296C68.5793 44.6843 68.8995 45.1649 69.1925 45.6712L69.1988 45.6821L69.2037 45.6937C69.3945 46.149 69.5619 46.6173 69.706 47.0983C72.8674 45.4882 76.1823 45.2358 78.9636 46.3551C81.6008 47.4163 83.7408 49.7038 84.8108 53.1967ZM81.0189 39.1159C81.6579 40.1583 82.2537 41.2348 82.8064 42.3451C80.3315 39.722 77.525 38.725 74.8764 38.9341C71.9438 39.1656 69.227 40.8741 67.3887 43.4435C67.2541 43.3291 67.1175 43.2178 66.979 43.1096L66.9691 43.1019L66.9583 43.0955C66.4988 42.823 66.0292 42.5831 65.5495 42.3758L65.5379 42.3709L65.5258 42.3674C65.0352 42.2263 64.5431 42.1177 64.0496 42.0418L64.0371 42.0399L64.0245 42.0396C63.9785 42.0385 63.9325 42.0376 63.8865 42.037C63.5515 41.2081 63.6444 40.1932 64.0686 39.1258C64.5071 38.0225 65.2939 36.879 66.2928 35.861C68.1973 33.9198 70.8402 32.4653 73.2528 32.5831C73.3088 32.6052 73.3647 32.6276 73.4206 32.65C74.8358 33.4419 76.2105 34.3315 77.5447 35.319C78.7698 36.4961 79.9279 37.7618 81.0189 39.1159ZM62.5812 42.0946C62.9193 42.0598 63.2608 42.0405 63.6056 42.0367C63.2822 41.1432 63.4025 40.0918 63.8249 39.0292C64.279 37.8865 65.088 36.7146 66.1054 35.6776C67.8631 33.8862 70.2695 32.4718 72.5873 32.3266C71.3902 31.8782 70.1841 31.4957 68.9689 31.179C67.4691 30.988 65.9807 30.8927 64.5038 30.893C63.8485 30.9777 63.2003 31.0803 62.5592 31.2008C62.0475 31.4777 61.5608 31.9741 61.1217 32.6308C60.4684 33.6081 59.9395 34.9136 59.6072 36.2842C59.2749 37.6545 59.1412 39.081 59.2714 40.2985C59.3976 41.4776 59.7682 42.4359 60.4176 42.9727C60.6735 42.8075 60.9384 42.6525 61.2124 42.508L61.2235 42.5021L61.2353 42.4977C61.6623 42.3381 62.1027 42.2051 62.5564 42.0988L62.5686 42.0959L62.5812 42.0946ZM58.5731 45.2338C58.455 45.5947 58.3605 45.9577 58.2899 46.3227L58.2875 46.335L58.2867 46.3476C58.2632 46.7177 58.2631 47.0839 58.2865 47.4461L58.2873 47.4587L58.2897 47.471C58.3575 47.8189 58.4459 48.1576 58.5551 48.4869L58.559 48.4988L58.5645 48.5101C58.5687 48.5188 58.5729 48.5276 58.5771 48.5363C54.9227 50.3311 50.1618 47.1648 50.3947 41.9997C50.714 40.9888 51.095 39.9887 51.5377 38.9995C52.1765 37.9564 52.8878 36.9466 53.6717 35.97C53.7334 35.9107 53.7954 35.8516 53.8577 35.7927C52.9634 37.8444 53.146 40.1591 53.9922 41.9798C54.8995 43.9319 56.5909 45.3518 58.5731 45.2338ZM59.0555 49.3856C58.9268 49.1874 58.8068 48.9822 58.6953 48.7702C55.1221 50.5294 50.6505 47.7967 50.1673 43.186C50.0565 44.0152 49.9854 44.8412 49.9539 45.6639C50.0522 46.7465 50.2159 47.8062 50.4449 48.843C50.7968 49.8186 51.2036 50.7573 51.6651 51.6592C51.7865 51.8359 51.9099 52.0105 52.0352 52.1828C53.2098 53.5617 55.0747 53.857 56.7291 53.4858C57.7129 53.2652 58.6081 52.8105 59.2214 52.2214C59.798 51.6675 60.1168 51.0047 60.0469 50.3068C59.9487 50.2447 59.8517 50.1799 59.7557 50.1125L59.7454 50.1053L59.7361 50.0969C59.5019 49.8831 59.28 49.6527 59.0704 49.4057L59.0623 49.3961L59.0555 49.3856ZM60.3186 50.4705C60.3914 50.5121 60.4646 50.5524 60.5385 50.5912L60.5496 50.5971L60.5614 50.6014C60.8388 50.7048 61.1188 50.7895 61.4011 50.8553L61.4133 50.8582L61.4259 50.8594C61.7075 50.8881 61.9869 50.8989 62.2639 50.8917L62.2765 50.8913L62.2889 50.8894C62.4158 50.8698 62.5413 50.8465 62.6653 50.8196C63.0847 51.143 63.3287 51.6584 63.4017 52.2712C63.4749 52.8858 63.3744 53.5885 63.1144 54.2637C62.6116 55.5695 61.5268 56.7412 60.0072 56.9794C59.3907 56.9109 58.7728 56.813 58.1536 56.6856C57.3216 56.399 56.5016 56.0565 55.6936 55.658C54.9257 55.1471 54.1847 54.5827 53.4708 53.9647C53.2477 53.7147 53.0296 53.459 52.8166 53.1976C53.997 53.9287 55.4705 54.0367 56.7866 53.7415C57.8085 53.5122 58.7495 53.0382 59.4032 52.4103C59.97 51.8657 60.3279 51.197 60.3186 50.4705ZM61.8156 77.0827C61.6654 77.1151 61.515 77.147 61.3643 77.1783C58.783 77.3772 56.169 77.4101 53.5223 77.2769C50.8527 76.796 48.1939 76.1381 45.546 75.3032C44.0852 74.6272 42.643 73.8945 41.2193 73.1052C52.2121 74.3965 61.2031 66.379 60.0456 57.3789C60.2486 57.4006 60.4516 57.4192 60.6545 57.4346L60.667 57.4356L60.6796 57.4349C61.5233 57.3914 62.3515 57.296 63.1643 57.1488L63.1767 57.1466L63.1886 57.1428C63.9578 56.8992 64.7002 56.6114 65.4158 56.2794L65.4272 56.2741L65.4378 56.2674C66.0531 55.88 66.6369 55.4619 67.1891 55.0132C70.964 57.7441 72.0537 62.3694 70.95 66.7793C69.8634 71.121 66.6533 75.2347 61.8156 77.0827ZM58.0617 57.0679C58.6343 57.1861 59.2061 57.2796 59.777 57.3484C60.98 66.3339 51.7938 74.4421 40.6009 72.7581C39.7211 72.2583 38.8485 71.7366 37.983 71.1932C35.6849 69.3014 33.4922 67.246 31.4051 65.0268C30.9517 64.4006 30.5076 63.7659 30.0727 63.1227C34.2086 64.0765 39.3847 63.4654 43.7506 61.7651C48.1784 60.0408 51.8215 57.1756 52.6657 53.6329C52.8359 53.8373 53.0092 54.0382 53.1856 54.2357L53.194 54.2451L53.2035 54.2533C53.9359 54.8881 54.6968 55.4677 55.4862 55.9922L55.4967 55.9991L55.508 56.0047C56.3381 56.4147 57.1813 56.7669 58.0375 57.0613L58.0494 57.0654L58.0617 57.0679ZM29.8566 62.8012C33.9721 63.8333 39.2279 63.2453 43.6553 61.521C48.1445 59.7727 51.7318 56.8776 52.4543 53.3753C52.0639 52.8925 51.6903 52.3911 51.3334 51.871L51.3263 51.8606L51.3206 51.8494C50.8471 50.9252 50.4304 49.9635 50.0704 48.9642L50.0662 48.9524L50.0635 48.9401C50.0137 48.7156 49.9671 48.49 49.9234 48.2633C48.7147 49.5015 43.2078 50.4366 36.597 50.4366C30.4942 50.4366 25.3321 49.6396 23.624 48.5431C24.3853 51.456 25.301 54.2871 26.3709 57.0364C27.4568 59.0278 28.6187 60.9494 29.8566 62.8012ZM49.8595 47.9194C49.8332 47.7717 49.8081 47.6237 49.7843 47.4752C49.7635 47.4505 49.7394 47.4248 49.7119 47.3981C49.5602 47.2514 49.3223 47.0975 48.9922 46.943C48.3333 46.6348 47.3633 46.3505 46.1436 46.1091C43.7087 45.6274 40.3334 45.3276 36.597 45.3276C32.8607 45.3276 29.4854 45.6274 27.0505 46.1091C25.8308 46.3505 24.8608 46.6348 24.2019 46.943C23.8718 47.0975 23.6339 47.2514 23.4822 47.3981C23.4014 47.4762 23.351 47.5462 23.3217 47.6079L23.3818 47.593C23.4271 47.7752 23.4729 47.957 23.5194 48.1385C23.6716 48.2748 23.8976 48.4168 24.2019 48.5591C24.8608 48.8673 25.8308 49.1517 27.0505 49.393C29.4854 49.8748 32.8607 50.1746 36.597 50.1746C40.3334 50.1746 43.7087 49.8748 46.1436 49.393C47.3633 49.1517 48.3333 48.8673 48.9922 48.5591C49.3223 48.4047 49.5602 48.2507 49.7119 48.104C49.7819 48.0363 49.8291 47.9748 49.8595 47.9194ZM62.3303 47.6486C62.3321 47.6524 62.3339 47.6561 62.3357 47.6598C62.3395 47.6675 62.3434 47.6749 62.3474 47.6823C62.3572 47.6945 62.3673 47.7061 62.3777 47.7171C62.389 47.7255 62.4005 47.7334 62.4121 47.7407C62.4239 47.7455 62.4357 47.7497 62.4475 47.7534C62.4588 47.7548 62.4699 47.7559 62.481 47.7564C62.491 47.7551 62.5008 47.7535 62.5104 47.7515C62.5186 47.7482 62.5265 47.7446 62.5343 47.7409C62.5404 47.7362 62.5463 47.7315 62.552 47.7267C62.556 47.7215 62.5599 47.7163 62.5636 47.7111C62.565 47.7079 62.5663 47.7046 62.5676 47.7014C62.5683 47.6996 62.569 47.6978 62.5697 47.6961C62.57 47.6935 62.5704 47.6909 62.5707 47.6883C62.571 47.6865 62.5712 47.6847 62.5714 47.683C62.571 47.6795 62.5705 47.6761 62.57 47.6727C62.5691 47.6704 62.5682 47.668 62.5672 47.6657L62.566 47.6641L62.5645 47.662L62.5633 47.6625L62.5626 47.6608L62.5616 47.6609C62.5598 47.6611 62.5581 47.6613 62.5564 47.6616L62.5561 47.6593C62.5547 47.6591 62.5534 47.659 62.5521 47.6588L62.5523 47.656L62.5507 47.6554L62.5531 47.649L62.5536 47.6435L62.5528 47.6383L62.5508 47.6336L62.5478 47.6298L62.5442 47.627L62.5401 47.6254L62.5359 47.6248L62.3303 47.6486Z" fill="black" stroke="black" stroke-width="1.25"/>
</svg>
