<svg width="108" height="108" viewBox="0 0 108 108" fill="none" xmlns="http://www.w3.org/2000/svg">
<rect width="108" height="108" fill="url(#paint0_linear_21426_70)"/>
<g filter="url(#filter0_bd_21426_70)">
<path fill-rule="evenodd" clip-rule="evenodd" d="M45.9312 46.9098C45.9811 47.4636 46.045 48.0126 46.123 48.5568C44.2933 47.1812 37.9778 46.167 30.4682 46.167C21.6691 46.167 14.5096 47.5594 14.2842 49.2939L14.25 49.3024C14.2601 49.3431 14.2702 49.3838 14.2803 49.4245C14.2859 49.5022 14.3053 49.5792 14.3382 49.6555C15.2906 53.4388 16.4574 57.1089 17.8388 60.6657L17.8442 60.6797L17.8514 60.6929C19.6873 64.0694 21.7048 67.2797 23.904 70.3237L23.9128 70.3359L23.9231 70.3468C26.4325 73.0226 29.0696 75.501 31.8345 77.7819L31.8461 77.7914L31.8588 77.7994C34.8216 79.6652 37.8549 81.3177 40.9587 82.757L40.9723 82.7633L40.9866 82.7678C44.1732 83.7757 47.3735 84.5696 50.5876 85.1495L50.6024 85.1521L50.6174 85.1529C53.8041 85.3142 56.952 85.2746 60.061 85.0337L60.0759 85.0326L60.0906 85.0295C63.0735 84.4088 65.9722 83.6116 68.7864 82.6381L68.8006 82.6332L68.8141 82.6265C71.4203 81.3324 73.9062 79.8957 76.2717 78.3164L76.2842 78.308L76.2955 78.2982C78.3916 76.473 80.3421 74.5451 82.1471 72.5145L82.1571 72.5033L82.1656 72.4909C83.6624 70.2983 85.0001 68.0459 86.1785 65.7339L86.1853 65.7205L86.1904 65.7063C87.045 63.319 87.7383 60.9149 88.2701 58.4941L88.2733 58.4795L88.2747 58.4645C88.4892 56.0524 88.5506 53.6638 88.4587 51.2988L88.4581 51.2838L88.4556 51.269C88.0728 48.9886 87.5541 46.767 86.8995 44.6041L86.8951 44.5897L86.889 44.576C85.9859 42.5617 84.9715 40.6344 83.8456 38.7943L83.8378 38.7815L83.8284 38.7698C82.5088 37.1269 81.1073 35.5913 79.6238 34.1632L79.6129 34.1528L79.6009 34.1438C77.9859 32.9448 76.3211 31.8646 74.6064 30.9035L74.5933 30.8962L74.5794 30.8906C72.7984 30.1729 70.9999 29.5771 69.1841 29.1034L69.1696 29.0996L69.1547 29.0977C67.3363 28.8649 65.5311 28.749 63.7393 28.75L63.7243 28.75L63.7094 28.7519C61.9732 28.9762 60.2773 29.3052 58.622 29.7391L58.6074 29.7429L58.5935 29.7485C57.0434 30.3752 55.5558 31.0889 54.1307 31.8898L54.1177 31.8971L54.1056 31.9061C52.8243 32.8597 51.6217 33.8786 50.498 34.9629L50.4872 34.9733L50.4778 34.985C49.5236 36.1757 48.6579 37.4077 47.8808 38.6811L47.8729 38.694L47.8668 38.7077C47.272 40.0384 46.7689 41.386 46.3577 42.7504L46.3533 42.7648L46.3509 42.7796C46.1219 44.1529 45.9817 45.5197 45.9304 46.8798L45.9298 46.8948L45.9312 46.9098ZM62.1855 84.078C64.3775 83.5501 66.522 82.9237 68.6191 82.1988C71.1983 80.9174 73.6582 79.4957 75.9989 77.9337C77.1283 76.9498 78.2149 75.9361 79.2588 74.8924C83.1105 69.7666 83.35 64.3584 81.4666 60.1101C79.4786 55.626 75.1232 52.4251 70.1161 52.1961C70.037 52.6732 69.9387 53.1502 69.8211 53.6271L69.8175 53.6417L69.8121 53.6557C69.5156 54.4215 69.1672 55.1735 68.767 55.9116L68.7598 55.9248L68.7511 55.937C68.2991 56.5641 67.8075 57.1687 67.2764 57.7508C67.2707 57.7593 67.2651 57.7678 67.2594 57.7763L67.2555 57.7737C67.2339 57.7973 67.2122 57.8209 67.1904 57.8444C71.7805 61.2069 73.0816 66.8611 71.7469 72.2076C70.5459 77.0185 67.2082 81.5994 62.1855 84.078ZM67.3152 56.9993C67.1366 57.2066 66.9531 57.4112 66.7645 57.613C66.0942 58.1663 65.3831 58.6808 64.631 59.1563C63.8047 59.5399 62.9471 59.8732 62.0583 60.1561C61.1743 60.316 60.2742 60.4233 59.3577 60.4781C60.8242 59.9164 61.8655 58.642 62.3893 57.2783C62.7147 56.4311 62.8449 55.5393 62.7506 54.7463C62.667 54.0421 62.4046 53.4063 61.9347 52.9563C61.9722 52.9461 62.0095 52.9356 62.0467 52.9248L62.0611 52.9206L62.0749 52.9147C62.358 52.7917 62.6295 52.6528 62.8892 52.498L62.9021 52.4903L62.9139 52.4811C63.1462 52.2988 63.3638 52.1046 63.5667 51.8986L63.5773 51.8879L63.5864 51.8759C63.6633 51.7747 63.737 51.6719 63.8073 51.5677C65.049 51.4594 66.2403 52.3188 66.9375 53.5476C67.5379 54.6059 67.7471 55.897 67.3152 56.9993ZM67.8014 56.4126C67.9775 55.3874 67.7231 54.2982 67.2095 53.3928C66.5183 52.1746 65.3279 51.2399 64.0114 51.245C64.0244 51.2231 64.0372 51.2011 64.0499 51.1791L64.0574 51.1661L64.0631 51.1522C64.167 50.9028 64.254 50.6505 64.3239 50.3953L64.3279 50.3808L64.3299 50.3659C64.3659 50.11 64.3855 49.8555 64.3886 49.6024L64.3888 49.5873L64.387 49.5724C64.3586 49.3269 64.3153 49.0866 64.2571 48.8516L64.2535 48.837L64.248 48.823C64.2389 48.7995 64.2296 48.7761 64.2202 48.7528C65.1325 48.1048 66.5431 48.0256 67.7429 48.4219C68.6487 48.7211 69.3944 49.2757 69.715 50.0187C69.7494 50.4255 69.7695 50.8363 69.7754 51.2508C69.6888 52.0001 69.5534 52.7498 69.3691 53.4999C69.083 54.2372 68.7473 54.962 68.3618 55.6741C68.1815 55.9239 67.9947 56.17 67.8014 56.4126ZM63.9538 48.1874C64.0024 48.2768 64.0486 48.3678 64.0923 48.4604C65.1089 47.7725 66.6007 47.7147 67.8409 48.1244C68.5515 48.3591 69.2019 48.7559 69.6384 49.2954C69.6292 49.2228 69.6194 49.1503 69.6092 49.0779C69.5945 49.0247 69.5796 48.9716 69.5644 48.9186L69.5171 48.8316L69.5362 48.8212C69.3646 48.2351 69.1636 47.6659 68.9333 47.1135C68.5982 46.5341 68.2328 45.9845 67.8373 45.4644C67.3888 45.0109 66.9196 44.592 66.4297 44.2077C66.3849 44.1811 66.34 44.1548 66.295 44.1287C64.4453 44.162 63.0773 45.6803 63.381 47.5367C63.4177 47.5653 63.4541 47.5946 63.4902 47.6244L63.5018 47.6339L63.5121 47.6449C63.6636 47.8064 63.8055 47.9788 63.9378 48.162L63.9466 48.1742L63.9538 48.1874ZM63.0362 47.2903C63.0276 47.2847 63.0189 47.2791 63.0103 47.2735C62.9973 47.2652 62.9843 47.2569 62.9713 47.2487L62.9586 47.2407L62.945 47.2344C62.7575 47.1475 62.5671 47.0734 62.3739 47.0123L62.3596 47.0078L62.3449 47.0051C62.1503 46.97 61.9562 46.9475 61.7625 46.9377L61.7475 46.9369L61.7326 46.9381C61.6509 46.9444 61.5699 46.9529 61.4895 46.9636C60.7426 46.5343 60.5817 45.6983 60.7998 44.8516C60.9953 44.0932 61.4841 43.3831 62.0529 43.0376C62.4171 43.0158 62.7849 43.0092 63.1562 43.0181C63.7149 43.1049 64.2726 43.2282 64.8293 43.3881C65.158 43.5308 65.4827 43.687 65.8036 43.8566C64.12 44.1141 62.8979 45.5346 63.0362 47.2903ZM60.4969 44.7734C60.2849 45.5963 60.3884 46.4964 61.0683 47.0531C60.9255 47.1057 60.787 47.1653 60.6527 47.2319L60.6393 47.2386L60.6268 47.2469C60.4826 47.3432 60.3463 47.4472 60.218 47.5589L60.2067 47.5688L60.1967 47.58C60.0864 47.7041 59.9853 47.8334 59.8934 47.968L59.8849 47.9804L59.8781 47.9938C59.8415 48.0655 59.8075 48.1379 59.7759 48.211C59.1484 48.4462 58.4704 48.1078 58.0455 47.4407C57.6847 46.8744 57.532 46.0994 57.784 45.3338L57.7892 45.3258C58.0907 44.9696 58.4174 44.6298 58.7693 44.3063C59.1698 44.0247 59.5915 43.7663 60.0345 43.5314C60.4987 43.358 60.9772 43.212 61.47 43.0934C61.0129 43.5252 60.6592 44.1434 60.4969 44.7734ZM57.7607 44.6494C57.9834 44.4082 58.2177 44.1749 58.4635 43.9495L58.4746 43.9394L58.4869 43.9307C58.5277 43.9019 58.5688 43.8733 58.6101 43.845C57.7884 43.1179 57.352 41.901 57.2025 40.5C57.0424 39.0003 57.2072 37.2575 57.6099 35.5927C58.0126 33.9281 58.6557 32.3307 59.4604 31.124C59.8249 30.5772 60.2275 30.1039 60.661 29.7419C60.0197 29.8759 59.3845 30.0253 58.7553 30.1899C57.233 30.806 55.7724 31.5068 54.3735 32.2923C53.4402 32.9874 52.5497 33.7173 51.7017 34.4822C50.2825 37.0059 50.422 40.0193 51.5003 42.3452C52.5793 44.6724 54.5714 46.2663 56.835 46.0415C57.0063 45.7072 57.1957 45.3793 57.4033 45.058L57.4114 45.0454L57.4211 45.0339C57.5268 44.9087 57.6354 44.7856 57.7469 44.6644L57.7511 44.6572L57.7571 44.6472L57.7607 44.6494ZM59.6592 48.5707C58.9238 48.7233 58.2087 48.2795 57.7817 47.6092C57.508 47.1795 57.3407 46.6433 57.3469 46.0762C57.2713 46.2169 57.1993 46.3589 57.1306 46.5019C56.9954 46.9145 56.8873 47.3287 56.8063 47.7447C56.7808 48.1576 56.7807 48.5654 56.806 48.9684C56.8818 49.355 56.9797 49.7309 57.0998 50.0961C57.134 50.167 57.1689 50.2372 57.2046 50.3068C57.7417 50.6659 58.3096 50.788 58.7823 50.7119C59.2791 50.632 59.6742 50.3343 59.8428 49.8468L59.8491 49.849C59.8401 49.8348 59.8313 49.8206 59.8225 49.8063L59.8147 49.7935L59.8085 49.7798C59.7524 49.6547 59.7042 49.5252 59.6637 49.3916L59.6594 49.3772L59.6569 49.3624C59.6332 49.2212 59.6185 49.0777 59.6129 48.932L59.6123 48.917L59.6136 48.902C59.6235 48.7915 59.6386 48.6811 59.6592 48.5707ZM57.6415 51.0644C57.5899 50.9844 57.5394 50.9033 57.4902 50.8212C57.9464 51.0235 58.4128 51.0887 58.8319 51.0213C59.3642 50.9356 59.8173 50.635 60.0588 50.1413L60.0599 50.1428L60.0708 50.1532C60.163 50.242 60.2596 50.3239 60.3606 50.3989L60.3727 50.4079L60.3858 50.4152C60.4928 50.4752 60.6022 50.5278 60.714 50.5728L60.7279 50.5784L60.7424 50.5822C60.8561 50.6119 60.9703 50.6341 61.0848 50.6488L61.0997 50.6507L61.1147 50.6506C61.1332 50.6506 61.1516 50.6504 61.1699 50.65C61.3331 50.7583 61.4279 50.9215 61.4627 51.1151C61.503 51.3385 61.4624 51.602 61.3466 51.8509C61.1616 52.2483 60.8012 52.5798 60.3296 52.6453C60.2685 52.6407 60.2072 52.6353 60.1458 52.6291C59.8386 52.5567 59.5334 52.4642 59.2302 52.3516C58.9372 52.1963 58.6515 52.0212 58.3732 51.8261C58.1165 51.5905 57.8726 51.3367 57.6415 51.0644ZM61.0865 52.6593C61.3652 52.6143 61.6369 52.5537 61.9019 52.4775C62.1575 52.3659 62.4022 52.2407 62.6363 52.1019C62.8447 51.9376 63.0399 51.7633 63.2221 51.5793C63.2776 51.5059 63.3312 51.4318 63.3828 51.3568C63.7308 50.8252 63.615 50.3397 63.3529 50.0425C63.0937 49.7485 62.721 49.6535 62.447 49.8077L62.4444 49.8165L62.4382 49.8302C62.4 49.9159 62.3559 49.9994 62.3063 50.0808L62.2985 50.0936L62.2891 50.1053C62.2279 50.1816 62.1616 50.2542 62.0901 50.3232L62.0793 50.3336L62.0672 50.3426C61.9855 50.4034 61.8995 50.4591 61.8092 50.5099L61.7961 50.5172L61.7822 50.5229C61.7127 50.5509 61.6418 50.5759 61.5693 50.5978C61.6744 50.7323 61.7403 50.891 61.7706 51.0595C61.8244 51.3578 61.768 51.6869 61.6301 51.9832C61.5108 52.2397 61.3256 52.48 61.0865 52.6593ZM63.8673 50.2855C63.8642 50.2967 63.8611 50.308 63.8579 50.3193C63.8026 50.1364 63.7082 49.972 63.5874 49.8351C63.3192 49.5309 62.8992 49.3506 62.515 49.4447C62.5155 49.3783 62.5129 49.3124 62.507 49.247L62.5056 49.232L62.5024 49.2173C62.4842 49.1351 62.4612 49.0549 62.4331 48.9768L62.428 48.9627L62.4212 48.9493C62.3844 48.8773 62.3435 48.8084 62.2985 48.7427L62.2901 48.7303L62.2801 48.7191C62.2457 48.6804 62.2099 48.6435 62.1728 48.6084C62.1882 48.5484 62.238 48.4837 62.3411 48.4193C62.4894 48.3266 62.7115 48.2636 62.9459 48.2575C63.1564 48.2519 63.36 48.2927 63.5171 48.3822C63.5277 48.3965 63.5383 48.4109 63.5488 48.4253C63.6444 48.6025 63.7299 48.7871 63.8052 48.9794C63.8556 49.1852 63.8936 49.3959 63.9192 49.6116C63.9158 49.8345 63.8986 50.0591 63.8673 50.2855ZM63.1485 47.9518C63.0144 47.8438 62.8763 47.7447 62.7342 47.6546C62.5735 47.5807 62.4111 47.5175 62.2469 47.465C62.0816 47.4357 61.9172 47.4167 61.7538 47.4078C61.7079 47.4115 61.6622 47.416 61.6169 47.4213C61.3347 47.5117 61.1302 47.7422 61.0045 48.0074C60.9154 48.1955 60.8731 48.389 60.8732 48.5378C60.8732 48.5724 60.8755 48.6028 60.8794 48.6292C60.9157 48.5917 60.9543 48.5562 60.9949 48.5226L61.0065 48.513L61.0192 48.505C61.0722 48.4715 61.1276 48.4414 61.1852 48.4146L61.1988 48.4083L61.2131 48.4037C61.2753 48.384 61.3389 48.3682 61.4039 48.3564L61.4187 48.3538L61.4336 48.353C61.5014 48.3495 61.5696 48.3504 61.6381 48.3556L61.653 48.3568L61.6677 48.3598C61.7368 48.3741 61.8052 48.393 61.8729 48.4163L61.887 48.4212L61.9005 48.4278L61.9066 48.4309C61.9649 48.3161 62.0652 48.2224 62.1754 48.1535C62.3805 48.0253 62.6599 47.9516 62.9377 47.9443C63.0072 47.9425 63.0779 47.9448 63.1485 47.9518ZM60.6867 49.0064C60.6904 48.9916 60.6943 48.9768 60.6985 48.962C60.6579 48.9213 60.6288 48.8721 60.6086 48.8222C60.5742 48.7372 60.5604 48.6384 60.5603 48.538C60.5602 48.3366 60.6156 48.0974 60.7219 47.8731C60.7535 47.8064 60.7903 47.7398 60.8323 47.6753C60.7288 47.7471 60.6305 47.8232 60.5373 47.9037C60.4472 48.0059 60.3646 48.1116 60.2893 48.2208C60.2311 48.3362 60.1806 48.4529 60.1377 48.5712C60.112 48.6909 60.0936 48.81 60.0824 48.9287C60.086 49.0112 60.0929 49.0925 60.1032 49.1728C60.1582 49.3082 60.2857 49.4304 60.4365 49.4997C60.5249 49.5403 60.6079 49.556 60.6713 49.5508C60.7161 49.5472 60.7464 49.5341 60.7674 49.5153C60.7488 49.4809 60.732 49.4456 60.7169 49.4093L60.7111 49.3955L60.7071 49.381C60.6933 49.3309 60.6828 49.2799 60.6754 49.2279L60.6733 49.2131L60.6731 49.198C60.6724 49.1441 60.6752 49.0901 60.6814 49.0359L60.6831 49.021L60.6867 49.0064ZM60.9807 49.7447C60.9978 49.7562 61.0152 49.7672 61.0328 49.7778L61.0457 49.7854L61.0595 49.7914C61.101 49.8093 61.1432 49.8246 61.1863 49.837L61.2007 49.8412L61.2156 49.8434C61.2586 49.8501 61.3018 49.854 61.345 49.8551L61.36 49.8554L61.3749 49.8539C61.4168 49.8496 61.458 49.8427 61.4987 49.8331L61.5133 49.8297L61.5273 49.8244C61.5653 49.8102 61.6022 49.7937 61.6378 49.7748L61.6511 49.7678L61.6634 49.7592C61.6954 49.7366 61.7258 49.7121 61.7546 49.6858L61.7656 49.6756L61.7753 49.6642C61.7997 49.6352 61.8222 49.6049 61.8427 49.5733L61.8508 49.5606L61.8573 49.5471C61.8731 49.5141 61.8868 49.4802 61.8982 49.4456L61.9029 49.4313L61.9057 49.4166C61.9124 49.3818 61.9169 49.3468 61.9192 49.3116L61.9201 49.2966L61.9191 49.2816C61.9169 49.2474 61.9126 49.2136 61.9061 49.18L61.9033 49.1653L61.8985 49.151C61.8881 49.1196 61.8758 49.0889 61.8615 49.0591L61.855 49.0456L61.8469 49.033C61.8295 49.006 61.8104 48.9803 61.7898 48.9559L61.7801 48.9444L61.769 48.9343C61.7461 48.9133 61.7219 48.8939 61.6966 48.8761L61.6843 48.8674L61.671 48.8604C61.6445 48.8464 61.6171 48.8341 61.5889 48.8235L61.5884 48.8234C61.6276 48.832 61.6667 48.8428 61.7059 48.8558C61.7445 48.8755 61.7824 48.8975 61.8198 48.9217C61.8544 48.9525 61.8878 48.9855 61.9199 49.0208C61.9473 49.0619 61.9729 49.1049 61.9966 49.15C62.0139 49.1999 62.0287 49.2512 62.0409 49.3042C62.0454 49.3602 62.0468 49.4171 62.0452 49.4749C62.0348 49.5338 62.021 49.5928 62.0037 49.6519C61.9773 49.7098 61.9473 49.7667 61.9137 49.8228C61.871 49.8752 61.8249 49.9257 61.7753 49.9743C61.7174 50.0166 61.6566 50.0561 61.5926 50.0927C61.5219 50.1206 61.4489 50.1448 61.3735 50.1651C61.2936 50.1748 61.2122 50.18 61.1295 50.1807C61.0449 50.1692 60.9602 50.1528 60.8752 50.1312C60.7917 50.0969 60.7093 50.0573 60.6281 50.0125C60.5517 49.955 60.4779 49.8925 60.4068 49.8248C60.4066 49.8245 60.4064 49.8242 60.4061 49.8239C60.5014 49.8553 60.601 49.8709 60.6968 49.8631C60.7988 49.8547 60.9005 49.8188 60.9807 49.7447ZM81.7867 72.2133C81.3748 72.6763 80.9554 73.134 80.5282 73.5864C83.4549 68.8273 83.5004 63.9258 81.7525 59.983C79.7242 55.4079 75.2836 52.1326 70.165 51.8848C70.1945 51.6864 70.2206 51.488 70.2433 51.2895L70.245 51.2746L70.2448 51.2596C70.2346 50.4933 70.177 49.739 70.0717 48.997L70.0696 48.9821L70.0657 48.9676L70.0564 48.934L70.0481 48.9043C73.7692 46.9879 77.6502 46.6946 80.8848 47.9995C84.1467 49.3155 86.7751 52.2662 87.924 56.8736C87.8925 57.3839 87.854 57.8953 87.8086 58.4078C87.2827 60.7989 86.5977 63.1741 85.7537 65.5336C84.5884 67.8184 83.2661 70.0449 81.7867 72.2133ZM87.9761 55.89C88.0438 54.3607 88.0486 52.8414 87.9904 51.3321C87.6118 49.0813 87.0999 46.8889 86.4547 44.7548C86.3346 44.4871 86.2125 44.2209 86.0884 43.9563C83.0184 40.2571 79.4629 38.8854 76.1513 39.1475C72.751 39.4166 69.581 41.4104 67.4328 44.4339C67.6885 44.6611 67.9381 44.898 68.1816 45.1447L68.1921 45.1554L68.2012 45.1674C68.6156 45.7111 68.9976 46.2858 69.3471 46.8913L69.3546 46.9043L69.3604 46.9181C69.588 47.4626 69.7877 48.0225 69.9596 48.5978C73.7304 46.6723 77.6843 46.3706 81.0017 47.709C84.1474 48.978 86.6998 51.7133 87.9761 55.89ZM83.4533 39.0526C84.2155 40.2991 84.9262 41.5863 85.5854 42.914C82.6334 39.7774 79.2859 38.5851 76.1267 38.8352C72.6288 39.112 69.3882 41.155 67.1956 44.2275C67.035 44.0906 66.8721 43.9575 66.7069 43.8282L66.6951 43.8189L66.6822 43.8113C66.1342 43.4854 65.574 43.1985 65.0018 42.9507L64.988 42.9448L64.9736 42.9406C64.3884 42.7719 63.8015 42.6421 63.2127 42.5514L63.1979 42.5491L63.1829 42.5487C63.1279 42.5473 63.0731 42.5463 63.0183 42.5455C62.6187 41.5544 62.7295 40.3408 63.2355 39.0645C63.7585 37.7451 64.697 36.3779 65.8884 35.1605C68.16 32.8393 71.3124 31.1001 74.1901 31.2409C74.2568 31.2674 74.3236 31.2941 74.3903 31.3209C76.0783 32.2678 77.718 33.3316 79.3094 34.5124C80.7706 35.92 82.1519 37.4334 83.4533 39.0526ZM61.4613 42.6145C61.8646 42.5729 62.272 42.5498 62.6832 42.5452C62.2974 41.4768 62.441 40.2196 62.9447 38.9489C63.4864 37.5825 64.4514 36.1812 65.6649 34.9412C67.7614 32.7991 70.6317 31.1078 73.3963 30.9342C71.9684 30.3981 70.5298 29.9406 69.0803 29.562C67.2914 29.3336 65.5161 29.2196 63.7545 29.2199C62.9729 29.3212 62.1998 29.4439 61.435 29.588C60.8248 29.9191 60.2442 30.5126 59.7205 31.298C58.9412 32.4666 58.3104 34.0276 57.914 35.6665C57.5176 37.3052 57.3582 39.0109 57.5135 40.4667C57.664 41.8767 58.106 43.0226 58.8807 43.6645C59.1858 43.4669 59.5018 43.2816 59.8287 43.1088L59.8419 43.1018L59.856 43.0965C60.3653 42.9056 60.8906 42.7466 61.4317 42.6195L61.4463 42.616L61.4613 42.6145ZM56.6806 46.3681C56.5397 46.7997 56.427 47.2338 56.3427 47.6703L56.3399 47.685L56.3389 47.7C56.3109 48.1426 56.3108 48.5805 56.3387 49.0136L56.3397 49.0286L56.3425 49.0434C56.4234 49.4594 56.5288 49.8643 56.6591 50.2581L56.6638 50.2724L56.6703 50.2859C56.6753 50.2963 56.6803 50.3068 56.6853 50.3172C52.3265 52.4633 46.6479 48.6773 46.9256 42.501C47.3065 41.2921 47.7609 40.0963 48.289 38.9134C49.0509 37.6662 49.8993 36.4587 50.8344 35.2909C50.908 35.2199 50.9819 35.1493 51.0562 35.0789C49.9895 37.5322 50.2073 40.3001 51.2166 42.4771C52.2988 44.8114 54.3163 46.5093 56.6806 46.3681ZM57.2559 51.3327C57.1025 51.0957 56.9593 50.8505 56.8263 50.5969C52.5643 52.7005 47.2307 49.4329 46.6543 43.9195C46.5223 44.9111 46.4375 45.8987 46.3999 46.8825C46.5171 48.177 46.7123 49.4441 46.9855 50.6839C47.4053 51.8505 47.8904 52.973 48.4409 54.0514C48.5857 54.2628 48.7328 54.4715 48.8823 54.6776C50.2834 56.3264 52.5078 56.6795 54.4811 56.2357C55.6545 55.9718 56.7224 55.4282 57.4538 54.7237C58.1416 54.0614 58.5218 53.2689 58.4384 52.4343C58.3214 52.36 58.2056 52.2826 58.0911 52.202L58.0789 52.1934L58.0678 52.1833C57.7884 51.9277 57.5237 51.6522 57.2738 51.3568L57.2641 51.3453L57.2559 51.3327ZM58.7626 52.6301C58.8493 52.6798 58.9367 52.7279 59.0248 52.7744L59.0381 52.7814L59.0521 52.7866C59.3831 52.9103 59.717 53.0115 60.0537 53.0902L60.0683 53.0936L60.0832 53.0951C60.4192 53.1294 60.7524 53.1423 61.0829 53.1337L61.0979 53.1333L61.1127 53.131C61.2641 53.1075 61.4137 53.0797 61.5616 53.0475C62.0619 53.4343 62.3529 54.0505 62.44 54.7833C62.5273 55.5182 62.4074 56.3585 62.0973 57.1658C61.4976 58.7273 60.2037 60.1284 58.3911 60.4132C57.6557 60.3313 56.9188 60.2142 56.1802 60.0619C55.1878 59.7192 54.2098 59.3096 53.246 58.8331C52.33 58.2222 51.4462 57.5473 50.5947 56.8083C50.3286 56.5094 50.0685 56.2036 49.8144 55.8911C51.2223 56.7652 52.9799 56.8944 54.5497 56.5414C55.7686 56.2673 56.891 55.7004 57.6707 54.9496C58.3468 54.2984 58.7737 53.4988 58.7626 52.6301ZM60.5481 84.4521C60.369 84.4908 60.1896 84.5289 60.0098 84.5664C56.9309 84.8042 53.813 84.8435 50.6561 84.6843C47.4718 84.1092 44.3006 83.3225 41.1422 82.3242C39.3998 81.5158 37.6796 80.6398 35.9815 79.6959C49.0934 81.2401 59.8176 71.653 58.4369 60.8909C58.6791 60.9169 58.9212 60.9391 59.1632 60.9576L59.1781 60.9587L59.1931 60.9579C60.1994 60.9058 61.1873 60.7918 62.1568 60.6158L62.1716 60.6131L62.1858 60.6086C63.1033 60.3173 63.9888 59.9732 64.8423 59.5762L64.8559 59.5699L64.8686 59.5619C65.6025 59.0985 66.2988 58.5986 66.9575 58.0621C71.46 61.3276 72.7598 66.8583 71.4434 72.1316C70.1473 77.3233 66.3183 82.2423 60.5481 84.4521ZM56.0706 60.5191C56.7536 60.6604 57.4356 60.7722 58.1165 60.8544C59.5515 71.599 48.5944 81.2945 35.2438 79.2808C34.1945 78.6832 33.1536 78.0594 32.1213 77.4096C29.3801 75.1475 26.7648 72.6897 24.2754 70.0361C23.7346 69.2873 23.2048 68.5283 22.6861 67.7592C27.6193 68.8997 33.7932 68.1689 39.0007 66.1358C44.2821 64.0739 48.6274 60.6478 49.6344 56.4115C49.8374 56.656 50.0441 56.8963 50.2545 57.1324L50.2645 57.1436L50.2758 57.1535C51.1495 57.9125 52.0571 58.6056 52.9986 59.2327L53.0111 59.241L53.0246 59.2477C54.0148 59.738 55.0205 60.1592 56.0417 60.5111L56.0559 60.516L56.0706 60.5191ZM22.4283 67.3748C27.3372 68.6088 33.6061 67.9057 38.8871 65.8439C44.2417 63.7534 48.5205 60.2915 49.3822 56.1035C48.9166 55.5263 48.4709 54.9266 48.0453 54.3047L48.0368 54.2923L48.03 54.2789C47.4652 53.1738 46.9681 52.0238 46.5388 50.8289L46.5338 50.8148L46.5305 50.8001C46.4712 50.5316 46.4155 50.2618 46.3634 49.9908C44.9218 51.4713 38.3533 52.5895 30.4682 52.5895C23.1889 52.5895 17.0317 51.6366 14.9943 50.3253C15.9024 53.8084 16.9946 57.1938 18.2707 60.4814C19.5659 62.8626 20.9518 65.1604 22.4283 67.3748ZM46.2873 49.5795C46.2559 49.403 46.226 49.226 46.1976 49.0484C46.1727 49.0188 46.144 48.9881 46.1112 48.9562C45.9302 48.7808 45.6465 48.5967 45.2527 48.412C44.4669 48.0435 43.3098 47.7035 41.8551 47.4149C38.9508 46.8388 34.9247 46.4803 30.4682 46.4803C26.0116 46.4803 21.9856 46.8388 19.0813 47.4149C17.6265 47.7035 16.4695 48.0435 15.6836 48.412C15.2898 48.5967 15.0061 48.7808 14.8252 48.9562C14.7288 49.0496 14.6687 49.1332 14.6337 49.2071L14.7054 49.1892C14.7594 49.4071 14.8141 49.6245 14.8695 49.8416C15.0511 50.0045 15.3206 50.1743 15.6836 50.3445C16.4695 50.713 17.6265 51.0531 19.0813 51.3416C21.9856 51.9177 26.0116 52.2762 30.4682 52.2762C34.9247 52.2762 38.9508 51.9177 41.8551 51.3416C43.3098 51.0531 44.4669 50.713 45.2527 50.3445C45.6465 50.1598 45.9302 49.9757 46.1112 49.8003C46.1947 49.7193 46.251 49.6458 46.2873 49.5795ZM61.162 49.2557C61.1642 49.2603 61.1663 49.2647 61.1685 49.2692C61.173 49.2783 61.1777 49.2872 61.1825 49.296C61.1941 49.3106 61.2061 49.3245 61.2185 49.3376C61.2321 49.3477 61.2458 49.3571 61.2596 49.3659C61.2737 49.3715 61.2878 49.3766 61.3018 49.3811C61.3153 49.3828 61.3286 49.384 61.3417 49.3847C61.3537 49.3831 61.3654 49.3812 61.3768 49.3788C61.3866 49.3748 61.3961 49.3706 61.4053 49.3661C61.4127 49.3605 61.4197 49.3549 61.4265 49.3491C61.4313 49.3429 61.4359 49.3367 61.4403 49.3305C61.442 49.3266 61.4436 49.3227 61.4451 49.3188C61.4459 49.3167 61.4468 49.3146 61.4475 49.3125C61.448 49.3094 61.4484 49.3063 61.4488 49.3032C61.4491 49.3011 61.4493 49.299 61.4496 49.2968C61.4491 49.2927 61.4486 49.2886 61.448 49.2846C61.4469 49.2818 61.4458 49.2789 61.4446 49.2762L61.4432 49.2742L61.4414 49.2717L61.44 49.2723L61.4391 49.2703L61.4379 49.2704C61.4358 49.2707 61.4338 49.271 61.4318 49.2713L61.4313 49.2685C61.4297 49.2683 61.4281 49.2681 61.4266 49.268L61.4269 49.2646L61.4249 49.2639L61.4277 49.2562L61.4284 49.2496L61.4275 49.2434L61.425 49.2378L61.4215 49.2333L61.4171 49.23L61.4123 49.2279L61.4073 49.2272L61.162 49.2557Z" fill="#653838"/>
<path fill-rule="evenodd" clip-rule="evenodd" d="M45.9312 46.9098C45.9811 47.4636 46.045 48.0126 46.123 48.5568C44.2933 47.1812 37.9778 46.167 30.4682 46.167C21.6691 46.167 14.5096 47.5594 14.2842 49.2939L14.25 49.3024C14.2601 49.3431 14.2702 49.3838 14.2803 49.4245C14.2859 49.5022 14.3053 49.5792 14.3382 49.6555C15.2906 53.4388 16.4574 57.1089 17.8388 60.6657L17.8442 60.6797L17.8514 60.6929C19.6873 64.0694 21.7048 67.2797 23.904 70.3237L23.9128 70.3359L23.9231 70.3468C26.4325 73.0226 29.0696 75.501 31.8345 77.7819L31.8461 77.7914L31.8588 77.7994C34.8216 79.6652 37.8549 81.3177 40.9587 82.757L40.9723 82.7633L40.9866 82.7678C44.1732 83.7757 47.3735 84.5696 50.5876 85.1495L50.6024 85.1521L50.6174 85.1529C53.8041 85.3142 56.952 85.2746 60.061 85.0337L60.0759 85.0326L60.0906 85.0295C63.0735 84.4088 65.9722 83.6116 68.7864 82.6381L68.8006 82.6332L68.8141 82.6265C71.4203 81.3324 73.9062 79.8957 76.2717 78.3164L76.2842 78.308L76.2955 78.2982C78.3916 76.473 80.3421 74.5451 82.1471 72.5145L82.1571 72.5033L82.1656 72.4909C83.6624 70.2983 85.0001 68.0459 86.1785 65.7339L86.1853 65.7205L86.1904 65.7063C87.045 63.319 87.7383 60.9149 88.2701 58.4941L88.2733 58.4795L88.2747 58.4645C88.4892 56.0524 88.5506 53.6638 88.4587 51.2988L88.4581 51.2838L88.4556 51.269C88.0728 48.9886 87.5541 46.767 86.8995 44.6041L86.8951 44.5897L86.889 44.576C85.9859 42.5617 84.9715 40.6344 83.8456 38.7943L83.8378 38.7815L83.8284 38.7698C82.5088 37.1269 81.1073 35.5913 79.6238 34.1632L79.6129 34.1528L79.6009 34.1438C77.9859 32.9448 76.3211 31.8646 74.6064 30.9035L74.5933 30.8962L74.5794 30.8906C72.7984 30.1729 70.9999 29.5771 69.1841 29.1034L69.1696 29.0996L69.1547 29.0977C67.3363 28.8649 65.5311 28.749 63.7393 28.75L63.7243 28.75L63.7094 28.7519C61.9732 28.9762 60.2773 29.3052 58.622 29.7391L58.6074 29.7429L58.5935 29.7485C57.0434 30.3752 55.5558 31.0889 54.1307 31.8898L54.1177 31.8971L54.1056 31.9061C52.8243 32.8597 51.6217 33.8786 50.498 34.9629L50.4872 34.9733L50.4778 34.985C49.5236 36.1757 48.6579 37.4077 47.8808 38.6811L47.8729 38.694L47.8668 38.7077C47.272 40.0384 46.7689 41.386 46.3577 42.7504L46.3533 42.7648L46.3509 42.7796C46.1219 44.1529 45.9817 45.5197 45.9304 46.8798L45.9298 46.8948L45.9312 46.9098ZM62.1855 84.078C64.3775 83.5501 66.522 82.9237 68.6191 82.1988C71.1983 80.9174 73.6582 79.4957 75.9989 77.9337C77.1283 76.9498 78.2149 75.9361 79.2588 74.8924C83.1105 69.7666 83.35 64.3584 81.4666 60.1101C79.4786 55.626 75.1232 52.4251 70.1161 52.1961C70.037 52.6732 69.9387 53.1502 69.8211 53.6271L69.8175 53.6417L69.8121 53.6557C69.5156 54.4215 69.1672 55.1735 68.767 55.9116L68.7598 55.9248L68.7511 55.937C68.2991 56.5641 67.8075 57.1687 67.2764 57.7508C67.2707 57.7593 67.2651 57.7678 67.2594 57.7763L67.2555 57.7737C67.2339 57.7973 67.2122 57.8209 67.1904 57.8444C71.7805 61.2069 73.0816 66.8611 71.7469 72.2076C70.5459 77.0185 67.2082 81.5994 62.1855 84.078ZM67.3152 56.9993C67.1366 57.2066 66.9531 57.4112 66.7645 57.613C66.0942 58.1663 65.3831 58.6808 64.631 59.1563C63.8047 59.5399 62.9471 59.8732 62.0583 60.1561C61.1743 60.316 60.2742 60.4233 59.3577 60.4781C60.8242 59.9164 61.8655 58.642 62.3893 57.2783C62.7147 56.4311 62.8449 55.5393 62.7506 54.7463C62.667 54.0421 62.4046 53.4063 61.9347 52.9563C61.9722 52.9461 62.0095 52.9356 62.0467 52.9248L62.0611 52.9206L62.0749 52.9147C62.358 52.7917 62.6295 52.6528 62.8892 52.498L62.9021 52.4903L62.9139 52.4811C63.1462 52.2988 63.3638 52.1046 63.5667 51.8986L63.5773 51.8879L63.5864 51.8759C63.6633 51.7747 63.737 51.6719 63.8073 51.5677C65.049 51.4594 66.2403 52.3188 66.9375 53.5476C67.5379 54.6059 67.7471 55.897 67.3152 56.9993ZM67.8014 56.4126C67.9775 55.3874 67.7231 54.2982 67.2095 53.3928C66.5183 52.1746 65.3279 51.2399 64.0114 51.245C64.0244 51.2231 64.0372 51.2011 64.0499 51.1791L64.0574 51.1661L64.0631 51.1522C64.167 50.9028 64.254 50.6505 64.3239 50.3953L64.3279 50.3808L64.3299 50.3659C64.3659 50.11 64.3855 49.8555 64.3886 49.6024L64.3888 49.5873L64.387 49.5724C64.3586 49.3269 64.3153 49.0866 64.2571 48.8516L64.2535 48.837L64.248 48.823C64.2389 48.7995 64.2296 48.7761 64.2202 48.7528C65.1325 48.1048 66.5431 48.0256 67.7429 48.4219C68.6487 48.7211 69.3944 49.2757 69.715 50.0187C69.7494 50.4255 69.7695 50.8363 69.7754 51.2508C69.6888 52.0001 69.5534 52.7498 69.3691 53.4999C69.083 54.2372 68.7473 54.962 68.3618 55.6741C68.1815 55.9239 67.9947 56.17 67.8014 56.4126ZM63.9538 48.1874C64.0024 48.2768 64.0486 48.3678 64.0923 48.4604C65.1089 47.7725 66.6007 47.7147 67.8409 48.1244C68.5515 48.3591 69.2019 48.7559 69.6384 49.2954C69.6292 49.2228 69.6194 49.1503 69.6092 49.0779C69.5945 49.0247 69.5796 48.9716 69.5644 48.9186L69.5171 48.8316L69.5362 48.8212C69.3646 48.2351 69.1636 47.6659 68.9333 47.1135C68.5982 46.5341 68.2328 45.9845 67.8373 45.4644C67.3888 45.0109 66.9196 44.592 66.4297 44.2077C66.3849 44.1811 66.34 44.1548 66.295 44.1287C64.4453 44.162 63.0773 45.6803 63.381 47.5367C63.4177 47.5653 63.4541 47.5946 63.4902 47.6244L63.5018 47.6339L63.5121 47.6449C63.6636 47.8064 63.8055 47.9788 63.9378 48.162L63.9466 48.1742L63.9538 48.1874ZM63.0362 47.2903C63.0276 47.2847 63.0189 47.2791 63.0103 47.2735C62.9973 47.2652 62.9843 47.2569 62.9713 47.2487L62.9586 47.2407L62.945 47.2344C62.7575 47.1475 62.5671 47.0734 62.3739 47.0123L62.3596 47.0078L62.3449 47.0051C62.1503 46.97 61.9562 46.9475 61.7625 46.9377L61.7475 46.9369L61.7326 46.9381C61.6509 46.9444 61.5699 46.9529 61.4895 46.9636C60.7426 46.5343 60.5817 45.6983 60.7998 44.8516C60.9953 44.0932 61.4841 43.3831 62.0529 43.0376C62.4171 43.0158 62.7849 43.0092 63.1562 43.0181C63.7149 43.1049 64.2726 43.2282 64.8293 43.3881C65.158 43.5308 65.4827 43.687 65.8036 43.8566C64.12 44.1141 62.8979 45.5346 63.0362 47.2903ZM60.4969 44.7734C60.2849 45.5963 60.3884 46.4964 61.0683 47.0531C60.9255 47.1057 60.787 47.1653 60.6527 47.2319L60.6393 47.2386L60.6268 47.2469C60.4826 47.3432 60.3463 47.4472 60.218 47.5589L60.2067 47.5688L60.1967 47.58C60.0864 47.7041 59.9853 47.8334 59.8934 47.968L59.8849 47.9804L59.8781 47.9938C59.8415 48.0655 59.8075 48.1379 59.7759 48.211C59.1484 48.4462 58.4704 48.1078 58.0455 47.4407C57.6847 46.8744 57.532 46.0994 57.784 45.3338L57.7892 45.3258C58.0907 44.9696 58.4174 44.6298 58.7693 44.3063C59.1698 44.0247 59.5915 43.7663 60.0345 43.5314C60.4987 43.358 60.9772 43.212 61.47 43.0934C61.0129 43.5252 60.6592 44.1434 60.4969 44.7734ZM57.7607 44.6494C57.9834 44.4082 58.2177 44.1749 58.4635 43.9495L58.4746 43.9394L58.4869 43.9307C58.5277 43.9019 58.5688 43.8733 58.6101 43.845C57.7884 43.1179 57.352 41.901 57.2025 40.5C57.0424 39.0003 57.2072 37.2575 57.6099 35.5927C58.0126 33.9281 58.6557 32.3307 59.4604 31.124C59.8249 30.5772 60.2275 30.1039 60.661 29.7419C60.0197 29.8759 59.3845 30.0253 58.7553 30.1899C57.233 30.806 55.7724 31.5068 54.3735 32.2923C53.4402 32.9874 52.5497 33.7173 51.7017 34.4822C50.2825 37.0059 50.422 40.0193 51.5003 42.3452C52.5793 44.6724 54.5714 46.2663 56.835 46.0415C57.0063 45.7072 57.1957 45.3793 57.4033 45.058L57.4114 45.0454L57.4211 45.0339C57.5268 44.9087 57.6354 44.7856 57.7469 44.6644L57.7511 44.6572L57.7571 44.6472L57.7607 44.6494ZM59.6592 48.5707C58.9238 48.7233 58.2087 48.2795 57.7817 47.6092C57.508 47.1795 57.3407 46.6433 57.3469 46.0762C57.2713 46.2169 57.1993 46.3589 57.1306 46.5019C56.9954 46.9145 56.8873 47.3287 56.8063 47.7447C56.7808 48.1576 56.7807 48.5654 56.806 48.9684C56.8818 49.355 56.9797 49.7309 57.0998 50.0961C57.134 50.167 57.1689 50.2372 57.2046 50.3068C57.7417 50.6659 58.3096 50.788 58.7823 50.7119C59.2791 50.632 59.6742 50.3343 59.8428 49.8468L59.8491 49.849C59.8401 49.8348 59.8313 49.8206 59.8225 49.8063L59.8147 49.7935L59.8085 49.7798C59.7524 49.6547 59.7042 49.5252 59.6637 49.3916L59.6594 49.3772L59.6569 49.3624C59.6332 49.2212 59.6185 49.0777 59.6129 48.932L59.6123 48.917L59.6136 48.902C59.6235 48.7915 59.6386 48.6811 59.6592 48.5707ZM57.6415 51.0644C57.5899 50.9844 57.5394 50.9033 57.4902 50.8212C57.9464 51.0235 58.4128 51.0887 58.8319 51.0213C59.3642 50.9356 59.8173 50.635 60.0588 50.1413L60.0599 50.1428L60.0708 50.1532C60.163 50.242 60.2596 50.3239 60.3606 50.3989L60.3727 50.4079L60.3858 50.4152C60.4928 50.4752 60.6022 50.5278 60.714 50.5728L60.7279 50.5784L60.7424 50.5822C60.8561 50.6119 60.9703 50.6341 61.0848 50.6488L61.0997 50.6507L61.1147 50.6506C61.1332 50.6506 61.1516 50.6504 61.1699 50.65C61.3331 50.7583 61.4279 50.9215 61.4627 51.1151C61.503 51.3385 61.4624 51.602 61.3466 51.8509C61.1616 52.2483 60.8012 52.5798 60.3296 52.6453C60.2685 52.6407 60.2072 52.6353 60.1458 52.6291C59.8386 52.5567 59.5334 52.4642 59.2302 52.3516C58.9372 52.1963 58.6515 52.0212 58.3732 51.8261C58.1165 51.5905 57.8726 51.3367 57.6415 51.0644ZM61.0865 52.6593C61.3652 52.6143 61.6369 52.5537 61.9019 52.4775C62.1575 52.3659 62.4022 52.2407 62.6363 52.1019C62.8447 51.9376 63.0399 51.7633 63.2221 51.5793C63.2776 51.5059 63.3312 51.4318 63.3828 51.3568C63.7308 50.8252 63.615 50.3397 63.3529 50.0425C63.0937 49.7485 62.721 49.6535 62.447 49.8077L62.4444 49.8165L62.4382 49.8302C62.4 49.9159 62.3559 49.9994 62.3063 50.0808L62.2985 50.0936L62.2891 50.1053C62.2279 50.1816 62.1616 50.2542 62.0901 50.3232L62.0793 50.3336L62.0672 50.3426C61.9855 50.4034 61.8995 50.4591 61.8092 50.5099L61.7961 50.5172L61.7822 50.5229C61.7127 50.5509 61.6418 50.5759 61.5693 50.5978C61.6744 50.7323 61.7403 50.891 61.7706 51.0595C61.8244 51.3578 61.768 51.6869 61.6301 51.9832C61.5108 52.2397 61.3256 52.48 61.0865 52.6593ZM63.8673 50.2855C63.8642 50.2967 63.8611 50.308 63.8579 50.3193C63.8026 50.1364 63.7082 49.972 63.5874 49.8351C63.3192 49.5309 62.8992 49.3506 62.515 49.4447C62.5155 49.3783 62.5129 49.3124 62.507 49.247L62.5056 49.232L62.5024 49.2173C62.4842 49.1351 62.4612 49.0549 62.4331 48.9768L62.428 48.9627L62.4212 48.9493C62.3844 48.8773 62.3435 48.8084 62.2985 48.7427L62.2901 48.7303L62.2801 48.7191C62.2457 48.6804 62.2099 48.6435 62.1728 48.6084C62.1882 48.5484 62.238 48.4837 62.3411 48.4193C62.4894 48.3266 62.7115 48.2636 62.9459 48.2575C63.1564 48.2519 63.36 48.2927 63.5171 48.3822C63.5277 48.3965 63.5383 48.4109 63.5488 48.4253C63.6444 48.6025 63.7299 48.7871 63.8052 48.9794C63.8556 49.1852 63.8936 49.3959 63.9192 49.6116C63.9158 49.8345 63.8986 50.0591 63.8673 50.2855ZM63.1485 47.9518C63.0144 47.8438 62.8763 47.7447 62.7342 47.6546C62.5735 47.5807 62.4111 47.5175 62.2469 47.465C62.0816 47.4357 61.9172 47.4167 61.7538 47.4078C61.7079 47.4115 61.6622 47.416 61.6169 47.4213C61.3347 47.5117 61.1302 47.7422 61.0045 48.0074C60.9154 48.1955 60.8731 48.389 60.8732 48.5378C60.8732 48.5724 60.8755 48.6028 60.8794 48.6292C60.9157 48.5917 60.9543 48.5562 60.9949 48.5226L61.0065 48.513L61.0192 48.505C61.0722 48.4715 61.1276 48.4414 61.1852 48.4146L61.1988 48.4083L61.2131 48.4037C61.2753 48.384 61.3389 48.3682 61.4039 48.3564L61.4187 48.3538L61.4336 48.353C61.5014 48.3495 61.5696 48.3504 61.6381 48.3556L61.653 48.3568L61.6677 48.3598C61.7368 48.3741 61.8052 48.393 61.8729 48.4163L61.887 48.4212L61.9005 48.4278L61.9066 48.4309C61.9649 48.3161 62.0652 48.2224 62.1754 48.1535C62.3805 48.0253 62.6599 47.9516 62.9377 47.9443C63.0072 47.9425 63.0779 47.9448 63.1485 47.9518ZM60.6867 49.0064C60.6904 48.9916 60.6943 48.9768 60.6985 48.962C60.6579 48.9213 60.6288 48.8721 60.6086 48.8222C60.5742 48.7372 60.5604 48.6384 60.5603 48.538C60.5602 48.3366 60.6156 48.0974 60.7219 47.8731C60.7535 47.8064 60.7903 47.7398 60.8323 47.6753C60.7288 47.7471 60.6305 47.8232 60.5373 47.9037C60.4472 48.0059 60.3646 48.1116 60.2893 48.2208C60.2311 48.3362 60.1806 48.4529 60.1377 48.5712C60.112 48.6909 60.0936 48.81 60.0824 48.9287C60.086 49.0112 60.0929 49.0925 60.1032 49.1728C60.1582 49.3082 60.2857 49.4304 60.4365 49.4997C60.5249 49.5403 60.6079 49.556 60.6713 49.5508C60.7161 49.5472 60.7464 49.5341 60.7674 49.5153C60.7488 49.4809 60.732 49.4456 60.7169 49.4093L60.7111 49.3955L60.7071 49.381C60.6933 49.3309 60.6828 49.2799 60.6754 49.2279L60.6733 49.2131L60.6731 49.198C60.6724 49.1441 60.6752 49.0901 60.6814 49.0359L60.6831 49.021L60.6867 49.0064ZM60.9807 49.7447C60.9978 49.7562 61.0152 49.7672 61.0328 49.7778L61.0457 49.7854L61.0595 49.7914C61.101 49.8093 61.1432 49.8246 61.1863 49.837L61.2007 49.8412L61.2156 49.8434C61.2586 49.8501 61.3018 49.854 61.345 49.8551L61.36 49.8554L61.3749 49.8539C61.4168 49.8496 61.458 49.8427 61.4987 49.8331L61.5133 49.8297L61.5273 49.8244C61.5653 49.8102 61.6022 49.7937 61.6378 49.7748L61.6511 49.7678L61.6634 49.7592C61.6954 49.7366 61.7258 49.7121 61.7546 49.6858L61.7656 49.6756L61.7753 49.6642C61.7997 49.6352 61.8222 49.6049 61.8427 49.5733L61.8508 49.5606L61.8573 49.5471C61.8731 49.5141 61.8868 49.4802 61.8982 49.4456L61.9029 49.4313L61.9057 49.4166C61.9124 49.3818 61.9169 49.3468 61.9192 49.3116L61.9201 49.2966L61.9191 49.2816C61.9169 49.2474 61.9126 49.2136 61.9061 49.18L61.9033 49.1653L61.8985 49.151C61.8881 49.1196 61.8758 49.0889 61.8615 49.0591L61.855 49.0456L61.8469 49.033C61.8295 49.006 61.8104 48.9803 61.7898 48.9559L61.7801 48.9444L61.769 48.9343C61.7461 48.9133 61.7219 48.8939 61.6966 48.8761L61.6843 48.8674L61.671 48.8604C61.6445 48.8464 61.6171 48.8341 61.5889 48.8235L61.5884 48.8234C61.6276 48.832 61.6667 48.8428 61.7059 48.8558C61.7445 48.8755 61.7824 48.8975 61.8198 48.9217C61.8544 48.9525 61.8878 48.9855 61.9199 49.0208C61.9473 49.0619 61.9729 49.1049 61.9966 49.15C62.0139 49.1999 62.0287 49.2512 62.0409 49.3042C62.0454 49.3602 62.0468 49.4171 62.0452 49.4749C62.0348 49.5338 62.021 49.5928 62.0037 49.6519C61.9773 49.7098 61.9473 49.7667 61.9137 49.8228C61.871 49.8752 61.8249 49.9257 61.7753 49.9743C61.7174 50.0166 61.6566 50.0561 61.5926 50.0927C61.5219 50.1206 61.4489 50.1448 61.3735 50.1651C61.2936 50.1748 61.2122 50.18 61.1295 50.1807C61.0449 50.1692 60.9602 50.1528 60.8752 50.1312C60.7917 50.0969 60.7093 50.0573 60.6281 50.0125C60.5517 49.955 60.4779 49.8925 60.4068 49.8248C60.4066 49.8245 60.4064 49.8242 60.4061 49.8239C60.5014 49.8553 60.601 49.8709 60.6968 49.8631C60.7988 49.8547 60.9005 49.8188 60.9807 49.7447ZM81.7867 72.2133C81.3748 72.6763 80.9554 73.134 80.5282 73.5864C83.4549 68.8273 83.5004 63.9258 81.7525 59.983C79.7242 55.4079 75.2836 52.1326 70.165 51.8848C70.1945 51.6864 70.2206 51.488 70.2433 51.2895L70.245 51.2746L70.2448 51.2596C70.2346 50.4933 70.177 49.739 70.0717 48.997L70.0696 48.9821L70.0657 48.9676L70.0564 48.934L70.0481 48.9043C73.7692 46.9879 77.6502 46.6946 80.8848 47.9995C84.1467 49.3155 86.7751 52.2662 87.924 56.8736C87.8925 57.3839 87.854 57.8953 87.8086 58.4078C87.2827 60.7989 86.5977 63.1741 85.7537 65.5336C84.5884 67.8184 83.2661 70.0449 81.7867 72.2133ZM87.9761 55.89C88.0438 54.3607 88.0486 52.8414 87.9904 51.3321C87.6118 49.0813 87.0999 46.8889 86.4547 44.7548C86.3346 44.4871 86.2125 44.2209 86.0884 43.9563C83.0184 40.2571 79.4629 38.8854 76.1513 39.1475C72.751 39.4166 69.581 41.4104 67.4328 44.4339C67.6885 44.6611 67.9381 44.898 68.1816 45.1447L68.1921 45.1554L68.2012 45.1674C68.6156 45.7111 68.9976 46.2858 69.3471 46.8913L69.3546 46.9043L69.3604 46.9181C69.588 47.4626 69.7877 48.0225 69.9596 48.5978C73.7304 46.6723 77.6843 46.3706 81.0017 47.709C84.1474 48.978 86.6998 51.7133 87.9761 55.89ZM83.4533 39.0526C84.2155 40.2991 84.9262 41.5863 85.5854 42.914C82.6334 39.7774 79.2859 38.5851 76.1267 38.8352C72.6288 39.112 69.3882 41.155 67.1956 44.2275C67.035 44.0906 66.8721 43.9575 66.7069 43.8282L66.6951 43.8189L66.6822 43.8113C66.1342 43.4854 65.574 43.1985 65.0018 42.9507L64.988 42.9448L64.9736 42.9406C64.3884 42.7719 63.8015 42.6421 63.2127 42.5514L63.1979 42.5491L63.1829 42.5487C63.1279 42.5473 63.0731 42.5463 63.0183 42.5455C62.6187 41.5544 62.7295 40.3408 63.2355 39.0645C63.7585 37.7451 64.697 36.3779 65.8884 35.1605C68.16 32.8393 71.3124 31.1001 74.1901 31.2409C74.2568 31.2674 74.3236 31.2941 74.3903 31.3209C76.0783 32.2678 77.718 33.3316 79.3094 34.5124C80.7706 35.92 82.1519 37.4334 83.4533 39.0526ZM61.4613 42.6145C61.8646 42.5729 62.272 42.5498 62.6832 42.5452C62.2974 41.4768 62.441 40.2196 62.9447 38.9489C63.4864 37.5825 64.4514 36.1812 65.6649 34.9412C67.7614 32.7991 70.6317 31.1078 73.3963 30.9342C71.9684 30.3981 70.5298 29.9406 69.0803 29.562C67.2914 29.3336 65.5161 29.2196 63.7545 29.2199C62.9729 29.3212 62.1998 29.4439 61.435 29.588C60.8248 29.9191 60.2442 30.5126 59.7205 31.298C58.9412 32.4666 58.3104 34.0276 57.914 35.6665C57.5176 37.3052 57.3582 39.0109 57.5135 40.4667C57.664 41.8767 58.106 43.0226 58.8807 43.6645C59.1858 43.4669 59.5018 43.2816 59.8287 43.1088L59.8419 43.1018L59.856 43.0965C60.3653 42.9056 60.8906 42.7466 61.4317 42.6195L61.4463 42.616L61.4613 42.6145ZM56.6806 46.3681C56.5397 46.7997 56.427 47.2338 56.3427 47.6703L56.3399 47.685L56.3389 47.7C56.3109 48.1426 56.3108 48.5805 56.3387 49.0136L56.3397 49.0286L56.3425 49.0434C56.4234 49.4594 56.5288 49.8643 56.6591 50.2581L56.6638 50.2724L56.6703 50.2859C56.6753 50.2963 56.6803 50.3068 56.6853 50.3172C52.3265 52.4633 46.6479 48.6773 46.9256 42.501C47.3065 41.2921 47.7609 40.0963 48.289 38.9134C49.0509 37.6662 49.8993 36.4587 50.8344 35.2909C50.908 35.2199 50.9819 35.1493 51.0562 35.0789C49.9895 37.5322 50.2073 40.3001 51.2166 42.4771C52.2988 44.8114 54.3163 46.5093 56.6806 46.3681ZM57.2559 51.3327C57.1025 51.0957 56.9593 50.8505 56.8263 50.5969C52.5643 52.7005 47.2307 49.4329 46.6543 43.9195C46.5223 44.9111 46.4375 45.8987 46.3999 46.8825C46.5171 48.177 46.7123 49.4441 46.9855 50.6839C47.4053 51.8505 47.8904 52.973 48.4409 54.0514C48.5857 54.2628 48.7328 54.4715 48.8823 54.6776C50.2834 56.3264 52.5078 56.6795 54.4811 56.2357C55.6545 55.9718 56.7224 55.4282 57.4538 54.7237C58.1416 54.0614 58.5218 53.2689 58.4384 52.4343C58.3214 52.36 58.2056 52.2826 58.0911 52.202L58.0789 52.1934L58.0678 52.1833C57.7884 51.9277 57.5237 51.6522 57.2738 51.3568L57.2641 51.3453L57.2559 51.3327ZM58.7626 52.6301C58.8493 52.6798 58.9367 52.7279 59.0248 52.7744L59.0381 52.7814L59.0521 52.7866C59.3831 52.9103 59.717 53.0115 60.0537 53.0902L60.0683 53.0936L60.0832 53.0951C60.4192 53.1294 60.7524 53.1423 61.0829 53.1337L61.0979 53.1333L61.1127 53.131C61.2641 53.1075 61.4137 53.0797 61.5616 53.0475C62.0619 53.4343 62.3529 54.0505 62.44 54.7833C62.5273 55.5182 62.4074 56.3585 62.0973 57.1658C61.4976 58.7273 60.2037 60.1284 58.3911 60.4132C57.6557 60.3313 56.9188 60.2142 56.1802 60.0619C55.1878 59.7192 54.2098 59.3096 53.246 58.8331C52.33 58.2222 51.4462 57.5473 50.5947 56.8083C50.3286 56.5094 50.0685 56.2036 49.8144 55.8911C51.2223 56.7652 52.9799 56.8944 54.5497 56.5414C55.7686 56.2673 56.891 55.7004 57.6707 54.9496C58.3468 54.2984 58.7737 53.4988 58.7626 52.6301ZM60.5481 84.4521C60.369 84.4908 60.1896 84.5289 60.0098 84.5664C56.9309 84.8042 53.813 84.8435 50.6561 84.6843C47.4718 84.1092 44.3006 83.3225 41.1422 82.3242C39.3998 81.5158 37.6796 80.6398 35.9815 79.6959C49.0934 81.2401 59.8176 71.653 58.4369 60.8909C58.6791 60.9169 58.9212 60.9391 59.1632 60.9576L59.1781 60.9587L59.1931 60.9579C60.1994 60.9058 61.1873 60.7918 62.1568 60.6158L62.1716 60.6131L62.1858 60.6086C63.1033 60.3173 63.9888 59.9732 64.8423 59.5762L64.8559 59.5699L64.8686 59.5619C65.6025 59.0985 66.2988 58.5986 66.9575 58.0621C71.46 61.3276 72.7598 66.8583 71.4434 72.1316C70.1473 77.3233 66.3183 82.2423 60.5481 84.4521ZM56.0706 60.5191C56.7536 60.6604 57.4356 60.7722 58.1165 60.8544C59.5515 71.599 48.5944 81.2945 35.2438 79.2808C34.1945 78.6832 33.1536 78.0594 32.1213 77.4096C29.3801 75.1475 26.7648 72.6897 24.2754 70.0361C23.7346 69.2873 23.2048 68.5283 22.6861 67.7592C27.6193 68.8997 33.7932 68.1689 39.0007 66.1358C44.2821 64.0739 48.6274 60.6478 49.6344 56.4115C49.8374 56.656 50.0441 56.8963 50.2545 57.1324L50.2645 57.1436L50.2758 57.1535C51.1495 57.9125 52.0571 58.6056 52.9986 59.2327L53.0111 59.241L53.0246 59.2477C54.0148 59.738 55.0205 60.1592 56.0417 60.5111L56.0559 60.516L56.0706 60.5191ZM22.4283 67.3748C27.3372 68.6088 33.6061 67.9057 38.8871 65.8439C44.2417 63.7534 48.5205 60.2915 49.3822 56.1035C48.9166 55.5263 48.4709 54.9266 48.0453 54.3047L48.0368 54.2923L48.03 54.2789C47.4652 53.1738 46.9681 52.0238 46.5388 50.8289L46.5338 50.8148L46.5305 50.8001C46.4712 50.5316 46.4155 50.2618 46.3634 49.9908C44.9218 51.4713 38.3533 52.5895 30.4682 52.5895C23.1889 52.5895 17.0317 51.6366 14.9943 50.3253C15.9024 53.8084 16.9946 57.1938 18.2707 60.4814C19.5659 62.8626 20.9518 65.1604 22.4283 67.3748ZM46.2873 49.5795C46.2559 49.403 46.226 49.226 46.1976 49.0484C46.1727 49.0188 46.144 48.9881 46.1112 48.9562C45.9302 48.7808 45.6465 48.5967 45.2527 48.412C44.4669 48.0435 43.3098 47.7035 41.8551 47.4149C38.9508 46.8388 34.9247 46.4803 30.4682 46.4803C26.0116 46.4803 21.9856 46.8388 19.0813 47.4149C17.6265 47.7035 16.4695 48.0435 15.6836 48.412C15.2898 48.5967 15.0061 48.7808 14.8252 48.9562C14.7288 49.0496 14.6687 49.1332 14.6337 49.2071L14.7054 49.1892C14.7594 49.4071 14.8141 49.6245 14.8695 49.8416C15.0511 50.0045 15.3206 50.1743 15.6836 50.3445C16.4695 50.713 17.6265 51.0531 19.0813 51.3416C21.9856 51.9177 26.0116 52.2762 30.4682 52.2762C34.9247 52.2762 38.9508 51.9177 41.8551 51.3416C43.3098 51.0531 44.4669 50.713 45.2527 50.3445C45.6465 50.1598 45.9302 49.9757 46.1112 49.8003C46.1947 49.7193 46.251 49.6458 46.2873 49.5795ZM61.162 49.2557C61.1642 49.2603 61.1663 49.2647 61.1685 49.2692C61.173 49.2783 61.1777 49.2872 61.1825 49.296C61.1941 49.3106 61.2061 49.3245 61.2185 49.3376C61.2321 49.3477 61.2458 49.3571 61.2596 49.3659C61.2737 49.3715 61.2878 49.3766 61.3018 49.3811C61.3153 49.3828 61.3286 49.384 61.3417 49.3847C61.3537 49.3831 61.3654 49.3812 61.3768 49.3788C61.3866 49.3748 61.3961 49.3706 61.4053 49.3661C61.4127 49.3605 61.4197 49.3549 61.4265 49.3491C61.4313 49.3429 61.4359 49.3367 61.4403 49.3305C61.442 49.3266 61.4436 49.3227 61.4451 49.3188C61.4459 49.3167 61.4468 49.3146 61.4475 49.3125C61.448 49.3094 61.4484 49.3063 61.4488 49.3032C61.4491 49.3011 61.4493 49.299 61.4496 49.2968C61.4491 49.2927 61.4486 49.2886 61.448 49.2846C61.4469 49.2818 61.4458 49.2789 61.4446 49.2762L61.4432 49.2742L61.4414 49.2717L61.44 49.2723L61.4391 49.2703L61.4379 49.2704C61.4358 49.2707 61.4338 49.271 61.4318 49.2713L61.4313 49.2685C61.4297 49.2683 61.4281 49.2681 61.4266 49.268L61.4269 49.2646L61.4249 49.2639L61.4277 49.2562L61.4284 49.2496L61.4275 49.2434L61.425 49.2378L61.4215 49.2333L61.4171 49.23L61.4123 49.2279L61.4073 49.2272L61.162 49.2557Z" stroke="black" stroke-width="1.75"/>
</g>
<defs>
<filter id="filter0_bd_21426_70" x="9.85041" y="24.675" width="82.7246" height="64.65" filterUnits="userSpaceOnUse" color-interpolation-filters="sRGB">
<feFlood flood-opacity="0" result="BackgroundImageFix"/>
<feGaussianBlur in="BackgroundImageFix" stdDeviation="1.6"/>
<feComposite in2="SourceAlpha" operator="in" result="effect1_backgroundBlur_21426_70"/>
<feColorMatrix in="SourceAlpha" type="matrix" values="0 0 0 0 0 0 0 0 0 0 0 0 0 0 0 0 0 0 127 0" result="hardAlpha"/>
<feOffset dy="1"/>
<feGaussianBlur stdDeviation="0.5"/>
<feComposite in2="hardAlpha" operator="out"/>
<feColorMatrix type="matrix" values="0 0 0 0 0 0 0 0 0 0 0 0 0 0 0 0 0 0 0.25 0"/>
<feBlend mode="normal" in2="effect1_backgroundBlur_21426_70" result="effect2_dropShadow_21426_70"/>
<feBlend mode="normal" in="SourceGraphic" in2="effect2_dropShadow_21426_70" result="shape"/>
</filter>
<linearGradient id="paint0_linear_21426_70" x1="-2.75" y1="-1.75" x2="108" y2="108" gradientUnits="userSpaceOnUse">
<stop offset="0.2" stop-color="#E5D1FF"/>
<stop offset="0.988775" stop-color="#952CFF"/>
</linearGradient>
</defs>
</svg>
